<!-- icon666.com - MILLIONS vector ICONS FREE --><svg id="Layer_1" enable-background="new 0 0 512 512" viewBox="0 0 512 512" xmlns="http://www.w3.org/2000/svg"><g clip-rule="evenodd" fill-rule="evenodd"><path d="m331.321 326.315c-1.024 1.252-2.048 2.389-3.186 3.413-1.138 1.138-2.162 2.162-3.3 3.186l39.708 39.708c.91-1.252 1.934-2.389 2.958-3.527l.114-.114c1.024-1.024 2.162-2.048 3.413-2.958z" fill="#000000" style="fill: rgb(255, 255, 255);"></path><path d="m179.314 187.392c1.024-1.138 2.048-2.276 3.186-3.413 1.024-1.024 2.162-2.162 3.299-3.186l-39.481-39.481c-.91 1.138-1.82 2.276-2.958 3.413-1.138 1.138-2.389 2.162-3.641 3.072z" fill="#000000" style="fill: rgb(255, 255, 255);"></path><path d="m259.982 359.879c-1.479.114-3.072.114-4.665.114-1.479-.114-3.072-.114-4.551-.228v56.092c1.593-.228 3.186-.341 4.779-.341 1.479 0 2.958.114 4.437.341z" fill="#000000" style="fill: rgb(255, 255, 255);"></path><path d="m250.766 97.963v56.092c1.479-.228 3.072-.228 4.551-.228 1.593 0 3.072 0 4.665.114v-55.978c-1.479.228-2.958.341-4.437.341-1.593 0-3.186-.114-4.779-.341z" fill="#000000" style="fill: rgb(255, 255, 255);"></path><path d="m358.286 252.473c.114 1.479.114 2.958.114 4.437 0 1.593 0 3.186-.114 4.779h56.206c-.228-1.593-.341-3.186-.341-4.779 0-1.479.114-2.958.341-4.437z" fill="#000000" style="fill: rgb(255, 255, 255);"></path><path d="m152.348 261.689c0-1.593-.114-3.186-.114-4.779 0-1.479 0-2.958.114-4.437h-55.864c.228 1.479.341 2.958.341 4.437 0 1.593-.114 3.186-.341 4.779z" fill="#000000" style="fill: rgb(255, 255, 255);"></path><path d="m328.021 183.979c1.365 1.138 2.503 2.389 3.527 3.527l39.708-39.708c-1.252-.91-2.503-1.934-3.641-3.072-1.024-1.024-2.048-2.162-2.958-3.413l-39.708 39.708c1.024 1.023 2.162 1.934 3.072 2.958z" fill="#000000" style="fill: rgb(255, 255, 255);"></path><path d="m179.541 326.656-39.595 39.481c1.138.91 2.276 1.82 3.413 2.958 1.138 1.138 2.162 2.389 3.072 3.641l39.595-39.595c-1.252-1.138-2.389-2.276-3.527-3.413-1.023-1.024-2.047-2.048-2.958-3.072z" fill="#000000" style="fill: rgb(255, 255, 255);"></path><ellipse cx="255.317" cy="256.91" rx="93.867" ry="93.867" transform="matrix(.707 -.707 .707 .707 -106.882 255.784)" fill="#000000" style="fill: rgb(255, 255, 255);"></ellipse><ellipse cx="255.545" cy="68.039" rx="20.935" ry="20.935" transform="matrix(.987 -.16 .16 .987 -7.599 41.812)" fill="#000000" style="fill: rgb(255, 255, 255);"></ellipse><circle cx="121.97" cy="122.766" r="20.935" fill="#000000" style="fill: rgb(255, 255, 255);"></circle><ellipse cx="389.234" cy="122.766" rx="20.935" ry="20.935" transform="matrix(.383 -.924 .924 .383 126.859 435.391)" fill="#000000" style="fill: rgb(255, 255, 255);"></ellipse><path d="m445.099 235.065c-11.492 0-20.935 9.444-20.935 20.935 0 11.492 9.444 20.935 20.935 20.935 11.492.114 20.935-9.33 20.935-20.935 0-11.492-9.444-20.935-20.935-20.935z" fill="#000000" style="fill: rgb(255, 255, 255);"></path><path d="m375.58 374.898c-8.192 8.192-8.192 21.39 0 29.582s21.39 8.192 29.582 0c8.192-8.078 8.192-21.39 0-29.582s-21.39-8.192-29.582 0z" fill="#000000" style="fill: rgb(255, 255, 255);"></path><ellipse cx="257.138" cy="445.554" rx="20.935" ry="20.935" transform="matrix(.973 -.23 .23 .973 -95.489 70.997)" fill="#000000" style="fill: rgb(255, 255, 255);"></ellipse><path d="m108.658 376.036c-8.192 8.192-8.192 21.39 0 29.582s21.39 8.192 29.582 0c8.078-8.078 8.078-21.39 0-29.582-8.192-8.192-21.39-8.192-29.582 0z" fill="#000000" style="fill: rgb(255, 255, 255);"></path><path d="m67.584 236.658c-11.492 0-20.935 9.444-20.935 20.935 0 11.492 9.444 20.935 20.935 20.935 11.492.114 20.935-9.33 20.935-20.935 0-11.492-9.443-20.935-20.935-20.935z" fill="#000000" style="fill: rgb(255, 255, 255);"></path></g></svg>